<svg width="9" height="17" viewBox="0 0 9 17" fill="none" xmlns="http://www.w3.org/2000/svg">
<path d="M0.491147 9.57068L0.491045 9.57058C0.336646 9.41448 0.250001 9.20318 0.250001 8.98313C0.250001 8.76346 0.336204 8.55181 0.49115 8.39559L0.491147 9.57068ZM0.491147 9.57068L7.34255 16.4894L7.3426 16.4895C7.66508 16.8149 8.18842 16.8143 8.51025 16.4879L8.5103 16.4878C8.83033 16.1629 8.82944 15.6381 8.50869 15.3142L8.50869 15.3142L2.2393 8.98313L8.50892 2.65211L8.50895 2.65208C8.82964 2.32813 8.83053 1.80357 8.51056 1.47868L8.51048 1.4786C8.34967 1.31547 8.13771 1.23315 7.92575 1.23315C7.71439 1.23315 7.50321 1.31491 7.34263 1.47697L7.34258 1.47702L0.491352 8.39539L0.491147 9.57068Z" fill="#111111" stroke="#111111" stroke-width="0.5"/>
</svg>
