<svg width="16" height="13" viewBox="0 0 16 13" fill="none" xmlns="http://www.w3.org/2000/svg">
<path d="M9.793 0.179228C9.52667 -0.0681003 9.10433 -0.0583501 8.85067 0.201653C8.59667 0.461657 8.60733 0.873112 8.87367 1.12077L13.9877 5.8499H0.666667C0.298667 5.8499 0 6.14111 0 6.49991C0 6.85872 0.298667 7.14992 0.666667 7.14992H13.9663L8.87367 11.8794C8.607 12.127 8.59667 12.5385 8.85067 12.7985C8.98167 12.9324 9.15733 13 9.33333 13C9.49867 13 9.664 12.9405 9.793 12.8206L15.6093 7.41903C15.8613 7.17365 16 6.84734 16 6.49991C16 6.15248 15.8613 5.82618 15.5977 5.56975L9.793 0.179228Z" fill="white"/>
</svg>
