<svg width="27" height="27" viewBox="0 0 27 27" fill="none" xmlns="http://www.w3.org/2000/svg">
<rect x="0.5" y="0.5" width="26" height="26" rx="13" stroke="#36D000"/>
<path d="M19.896 16.6576L18.0081 14.7737C17.3338 14.1008 16.1876 14.37 15.9179 15.2447C15.7156 15.8502 15.0413 16.1867 14.4345 16.0521C13.086 15.7156 11.2655 13.9663 10.9283 12.5533C10.7261 11.9477 11.1306 11.2748 11.7374 11.073C12.614 10.8039 12.8837 9.66005 12.2094 8.98721L10.3215 7.10324C9.78209 6.63225 8.97297 6.63225 8.50099 7.10324L7.2199 8.38165C5.9388 9.72733 7.35475 13.2934 10.5238 16.4558C13.6928 19.6181 17.2664 21.0984 18.6149 19.7527L19.896 18.4743C20.368 17.936 20.368 17.1286 19.896 16.6576Z" fill="#36D000"/>
</svg>
