<svg width="9" height="13" viewBox="0 0 9 13" fill="none" xmlns="http://www.w3.org/2000/svg">
<path d="M4.23077 0C1.89797 0 0 1.89797 0 4.23077C0 4.93108 0.175089 5.62543 0.507939 6.24131L3.99941 12.5559C4.04589 12.6401 4.13446 12.6923 4.23077 12.6923C4.32708 12.6923 4.41565 12.6401 4.46213 12.5559L7.95489 6.23922C8.28645 5.62543 8.46154 4.93105 8.46154 4.23075C8.46154 1.89797 6.56357 0 4.23077 0ZM4.23077 6.34614C3.06437 6.34614 2.1154 5.39717 2.1154 4.23077C2.1154 3.06437 3.06437 2.1154 4.23077 2.1154C5.39717 2.1154 6.34614 3.06437 6.34614 4.23077C6.34614 5.39717 5.39717 6.34614 4.23077 6.34614Z" fill="#EC1A1A"/>
</svg>
