<svg width="18" height="11" viewBox="0 0 18 11" fill="none" xmlns="http://www.w3.org/2000/svg">
<path d="M17.2863 6.37898C17.2593 5.98927 17.2047 5.56416 17.1242 5.11525C17.0431 4.66298 16.9385 4.23543 16.8134 3.84465C16.6842 3.44075 16.5084 3.04189 16.2911 2.65966C16.0656 2.26293 15.8007 1.91748 15.5034 1.63321C15.1926 1.33581 14.8121 1.09671 14.372 0.922301C13.9335 0.748809 13.4475 0.660919 12.9276 0.660919C12.7234 0.660919 12.526 0.74469 12.1447 0.992949C11.91 1.14599 11.6355 1.323 11.3291 1.51876C11.0671 1.6857 10.7122 1.8421 10.2738 1.9837C9.8461 2.1221 9.41183 2.19229 8.98322 2.19229C8.5546 2.19229 8.12048 2.1221 7.69232 1.9837C7.25439 1.84225 6.89948 1.68585 6.63779 1.51892C6.33429 1.32498 6.05963 1.14798 5.82144 0.992797C5.44058 0.744537 5.24298 0.660767 5.03882 0.660767C4.5188 0.660767 4.03296 0.748809 3.59457 0.922454C3.15482 1.09656 2.77411 1.33566 2.46298 1.63336C2.16589 1.91778 1.90085 2.26309 1.67563 2.65966C1.4585 3.04189 1.28271 3.4406 1.15332 3.84481C1.02835 4.23558 0.923828 4.66298 0.842651 5.11525C0.762238 5.56355 0.707611 5.98881 0.680603 6.37943C0.654053 6.76212 0.640625 7.15931 0.640625 7.56046C0.640625 8.60446 0.972504 9.44964 1.62695 10.073C2.27332 10.688 3.12857 11.0001 4.16861 11.0001H13.7987C14.8388 11.0001 15.6937 10.6882 16.3402 10.073C16.9948 9.4501 17.3267 8.60477 17.3267 7.56031C17.3266 7.15732 17.313 6.75983 17.2863 6.37898Z" fill="black"/>
</svg>
