<svg width="12" height="12" viewBox="0 0 12 12" fill="none" xmlns="http://www.w3.org/2000/svg">
<g clip-path="url(#clip0_2_3657)">
<path d="M11.9681 4.6027C11.8891 4.35972 11.6736 4.18769 11.4196 4.16471L7.95558 3.85022L6.58657 0.645087C6.4855 0.409609 6.25551 0.257629 5.99953 0.257629C5.74354 0.257629 5.51347 0.409609 5.41303 0.645087L4.04402 3.85022L0.579424 4.16471C0.325452 4.18815 0.110391 4.36018 0.0309221 4.6027C-0.0480892 4.84569 0.0248795 5.1122 0.21696 5.28066L2.8355 7.57675L2.06343 10.9773C2.00694 11.2273 2.10399 11.4858 2.31145 11.6358C2.42296 11.7168 2.55397 11.7573 2.68545 11.7573C2.79842 11.7573 2.91149 11.7273 3.01248 11.6668L5.99953 9.88081L8.98603 11.6668C9.20512 11.7978 9.4806 11.7858 9.68761 11.6358C9.89507 11.4858 9.99212 11.2273 9.93563 10.9773L9.16355 7.57675L11.7821 5.28066C11.9741 5.1122 12.0471 4.84624 11.9681 4.6027Z" fill="#FFBE16"/>
</g>
<defs>
<clipPath id="clip0_2_3657">
<rect width="12" height="12" fill="white"/>
</clipPath>
</defs>
</svg>
